<svg version="1.1" id="레이어_1" xmlns="http://www.w3.org/2000/svg" x="0" y="0" viewBox="0 0 45 45" style="enable-background:new 0 0 45 45" xml:space="preserve"><style>.st0{fill:#181617}</style><path class="st0" d="M5.6 15v20.6c0 4.1 3.4 5.6 5.6 5.6h28.1v-3.7h-28c-.9 0-1.9-.4-1.9-1.9v-.5c.2-1.1 1.1-1.3 1.9-1.4h28.1V7.5c0-2.1-1.7-3.8-3.8-3.8H11.2c-2.3 0-5.6 1.5-5.6 5.6V15zm5.6-7.5h24.4V30H9.4V9.4c0-1.5 1-1.9 1.8-1.9z"/><path class="st0" d="M20.6 26.3h3.8v-5.6H30v-3.8h-5.6v-5.6h-3.8v5.6H15v3.8h5.6v5.6z"/></svg>